<?xml version="1.0" standalone="no"?><!DOCTYPE svg PUBLIC "-//W3C//DTD SVG 1.1//EN" "http://www.w3.org/Graphics/SVG/1.1/DTD/svg11.dtd"><svg t="1606133210210" class="icon" viewBox="0 0 1030 1024" version="1.1" xmlns="http://www.w3.org/2000/svg" p-id="2115" xmlns:xlink="http://www.w3.org/1999/xlink" width="201.171875" height="200"><defs><style type="text/css"></style></defs><path d="M1012.097376 286.573628L746.321821 20.734077a68.923735 68.923735 0 0 0-98.489906 0c-27.518297 27.518297-27.518297 70.907613 0 98.489906l13.759149 13.759149-318.956265 210.674964-9.85539-9.85539a68.923735 68.923735 0 0 0-98.42591 0c-27.582293 27.582293-27.582293 70.907613 0 98.489906l141.75123 141.751229-291.437968 291.437967c-27.518297 27.518297-27.518297 72.89149 0 100.473783 27.518297 27.518297 72.89149 27.518297 100.473783 0l291.373972-293.421844 124.088322 124.024326c27.518297 27.518297 70.843617 27.518297 98.42591 0 27.518297-27.518297 27.518297-70.907613 0-98.42591l-9.855391-9.85539 208.755084-321.004138 13.759148 13.823145c27.518297 27.518297 70.907613 27.518297 98.489906 0 27.518297-23.678535 27.518297-66.939858 1.919881-94.522152z" p-id="2116" fill="#1296db"></path></svg>