<?xml version="1.0" standalone="no"?><!DOCTYPE svg PUBLIC "-//W3C//DTD SVG 1.1//EN" "http://www.w3.org/Graphics/SVG/1.1/DTD/svg11.dtd"><svg t="1588752394387" class="icon" viewBox="0 0 1024 1024" version="1.1" xmlns="http://www.w3.org/2000/svg" p-id="12012" xmlns:xlink="http://www.w3.org/1999/xlink" width="200" height="200"><defs><style type="text/css"></style></defs><path d="M815.8 776.4c8.1 8.1 8.1 20.8-0.3 29.4-7.8 7.6-20.6 7.6-28.9-0.5L659.9 678.8c-7.8-8.1-7.8-20.8 0.5-29.1 7.8-7.8 21-7.8 29.4 0l126 126.7z m-56.1-714c13.2 0 26.7 1 39.9 4.2 14 2.4 26.7 6.6 38.9 11.8 17.1 7.3 25.4 27.6 17.9 45.3-1.7 4.2-4.2 7.6-7.1 10.8-26.2 26.2-52.3 52.1-78.3 78.3l4.4 15.7 3.9 15.9 16.2 4.4 15.7 4.2c25.9-26.2 52.1-51.9 78.3-78.3 13.2-13.5 35.2-13.5 48.9 0 3.9 4.2 6.9 9.3 8.3 14.7 4.7 11.3 8.3 23 10.5 34.8v0.5h0.3c2.5 12.5 3.9 25.9 3.9 40.1 0 55.1-22.8 105.7-59.2 142.4-36.2 36.5-87.1 59-142.4 59-3.9 0-7.8-0.3-11.8-0.3l-38.2 37.7 210 210 1.7 2c26.7 27.7 39.9 63.1 39.9 98.6 0 36.2-13.7 72.7-41.6 100.3l-0.5 0.5c-27.9 27.4-63.6 41.1-99.8 41.1s-73.2-13.7-100.3-41.6L508.7 704 294 919.1c-44.8 44.8-98.9 48.7-143.2 29.6-17.1-7.1-32.5-17.9-45.3-30.6h-0.3c-12.7-13-23.3-28.1-30.3-45-19.1-44.3-15.2-98.6 29.8-143.2v-0.5L344 490.1l-87.6-87.6-77.8-23.3c-9.8-2.7-18.1-10-22-19.3L82.1 185c-6.8-12.7-4.6-29.4 6.1-40.1l31.3-31.1L150.4 83c9.5-9.5 24.5-13.2 37.7-7.3l177.2 75.6c9.3 3.9 16.6 11.7 19.6 22l23 77.8 87.6 87.6 62.9-62.4c-0.3-4.4-0.5-8.6-0.5-11.8h0.2c0-56 22.5-106.7 59-142.9v-0.3c36.4-36.1 87.1-58.9 142.6-58.9z m-98.8 489.9L557.6 655.6l210 210c13.9 14.2 33.3 21.5 51.9 21.5s37.4-7.3 51.4-21.3l0.5-0.2c14.2-13.7 20.8-33 20.8-51.6 0-18.1-6.6-36.5-19.8-50.2l-1.5-1.5-210-210zM392.7 441.7l54.1-53.8-93.7-94c-4.9-4.9-7.8-10.8-9.3-17.1L323.4 208l-140.9-59.5-14.5 14.2-14.4 14.7 59.9 140.9 71 20.8c5.9 1.7 10.8 4.6 14.7 9l93.5 93.6z m362.1-310.3c-34.8 1.2-66.3 16.1-89.1 39.1-24.2 24-39.1 57-39.1 94h0.5v9.6l1 8.1c2.5 10.8-1 22.5-9.3 31.1L153.6 778.2h-0.3c-21.5 22.3-24 47.5-15.2 68.3 3.7 8.1 9.3 16.1 15.9 23 7.1 6.8 14.9 12.2 23.5 15.9 20.8 9 45.8 6.6 67.8-14.9l238.3-238.3 1-1 151.7-152 1-1.2 72.9-72.4h0.2c7.1-7.8 18.1-11.8 29.1-10 3.4 0.5 6.6 1 10.3 1 2.4 0.3 5.9 0.5 9.8 0.5 36.7 0 70-14.9 94-38.4v-0.7c22.8-22.5 37.2-54.1 38.4-89.1-14.9 15.2-29.8 29.8-44.8 45.3-8.5 9.5-21.5 13.5-34.7 10.5l-34.8-9.5-35.2-9.5c-11.8-3.2-21.3-11.8-24.5-24.5l-9.3-35.2-9.5-35.2c-2.7-10.8-0.3-24 9-32.5 15.6-15.8 31-31.2 46.6-46.9z" p-id="12013"></path></svg>