<?xml version="1.0" standalone="no"?><!DOCTYPE svg PUBLIC "-//W3C//DTD SVG 1.1//EN" "http://www.w3.org/Graphics/SVG/1.1/DTD/svg11.dtd"><svg t="1588600629546" class="icon" viewBox="0 0 1170 1024" version="1.1" xmlns="http://www.w3.org/2000/svg" p-id="2011" xmlns:xlink="http://www.w3.org/1999/xlink" width="228.515625" height="200"><defs><style type="text/css"></style></defs><path d="M713.508571 694.857143a164.205714 164.205714 0 0 0-154.697142 109.714286H347.428571a54.857143 54.857143 0 1 0 0 109.714285h211.748572a164.205714 164.205714 0 1 0 154.331428-219.428571z m0 219.428571a54.857143 54.857143 0 1 1 54.857143-54.857143A55.222857 55.222857 0 0 1 713.142857 914.285714z" fill="#535455" p-id="2012"></path><path d="M54.857143 859.794286m-54.857143 0a54.857143 54.857143 0 1 0 109.714286 0 54.857143 54.857143 0 1 0-109.714286 0Z" fill="#535455" p-id="2013"></path><path d="M201.142857 859.794286m-54.857143 0a54.857143 54.857143 0 1 0 109.714286 0 54.857143 54.857143 0 1 0-109.714286 0Z" fill="#535455" p-id="2014"></path><path d="M200.777143 694.857143A164.571429 164.571429 0 1 0 36.571429 530.285714 164.937143 164.937143 0 0 0 200.777143 694.857143z m0-219.428572A54.857143 54.857143 0 1 1 146.285714 530.651429 54.857143 54.857143 0 0 1 201.142857 475.428571zM639.634286 329.142857a164.571429 164.571429 0 0 0 154.331428-109.714286h175.177143a54.857143 54.857143 0 1 0 0-109.714285h-174.811428a164.205714 164.205714 0 1 0-154.697143 219.428571z m0-219.428571A54.857143 54.857143 0 1 1 585.142857 164.937143 54.857143 54.857143 0 0 1 640 109.714286z" fill="#535455" p-id="2015"></path><path d="M969.508571 365.714286a164.205714 164.205714 0 0 0-154.697142 109.714285h-167.131429l-292.571429-292.571428a54.857143 54.857143 0 0 0-78.994285 76.434286L585.142857 569.417143a54.125714 54.125714 0 0 0 43.154286 15.36h185.782857a164.205714 164.205714 0 1 0 154.331429-219.428572z m0 219.428571a54.857143 54.857143 0 1 1 54.857143-54.857143A55.222857 55.222857 0 0 1 969.142857 585.142857z" fill="#535455" p-id="2016"></path><path d="M1115.428571 164.937143m-54.857142 0a54.857143 54.857143 0 1 0 109.714285 0 54.857143 54.857143 0 1 0-109.714285 0Z" fill="#535455" p-id="2017"></path><path d="M164.571429 55.222857m-54.857143 0a54.857143 54.857143 0 1 0 109.714285 0 54.857143 54.857143 0 1 0-109.714285 0Z" fill="#535455" p-id="2018"></path></svg>