<?xml version="1.0" standalone="no"?><!DOCTYPE svg PUBLIC "-//W3C//DTD SVG 1.1//EN" "http://www.w3.org/Graphics/SVG/1.1/DTD/svg11.dtd"><svg t="1588905202572" class="icon" viewBox="0 0 1024 1024" version="1.1" xmlns="http://www.w3.org/2000/svg" p-id="13984" xmlns:xlink="http://www.w3.org/1999/xlink" width="200" height="200"><defs><style type="text/css"></style></defs><path d="M130.5 561.1c-26.6 0-48.2-21.6-48.2-48.2s21.6-48.2 48.2-48.2 48.2 21.6 48.2 48.2-21.6 48.2-48.2 48.2z m0-92.9c-24.6 0-44.7 20-44.7 44.7 0 24.6 20 44.7 44.7 44.7s44.7-20 44.7-44.7c-0.1-24.6-20.1-44.7-44.7-44.7z" p-id="13985" fill="#dbdbdb"></path><path d="M130.5 562.7c-27.5 0-49.8-22.3-49.8-49.8 0-27.5 22.3-49.8 49.8-49.8s49.8 22.3 49.8 49.8c0 27.4-22.3 49.8-49.8 49.8z m0-96.4c-25.7 0-46.6 20.9-46.6 46.6 0 25.7 20.9 46.6 46.6 46.6 25.7 0 46.6-20.9 46.6-46.6 0-25.7-20.9-46.6-46.6-46.6z m0 92.8c-25.5 0-46.2-20.7-46.2-46.2 0-25.5 20.7-46.2 46.2-46.2s46.2 20.7 46.2 46.2c0 25.5-20.7 46.2-46.2 46.2z m0-89.3c-23.7 0-43.1 19.3-43.1 43.1 0 23.7 19.3 43.1 43.1 43.1s43.1-19.3 43.1-43.1-19.4-43.1-43.1-43.1z" p-id="13986" fill="#dbdbdb"></path><path d="M130.5 577.5c-35.6 0-64.6-29-64.6-64.6s29-64.6 64.6-64.6 64.6 29 64.6 64.6-29 64.6-64.6 64.6z m0-124.5c-33 0-59.8 26.8-59.8 59.8s26.8 59.8 59.8 59.8 59.8-26.8 59.8-59.8c0-32.9-26.8-59.8-59.8-59.8z" p-id="13987" fill="#dbdbdb"></path><path d="M130.5 579.1c-36.5 0-66.2-29.7-66.2-66.2s29.7-66.2 66.2-66.2 66.2 29.7 66.2 66.2-29.7 66.2-66.2 66.2z m0-129.2c-34.7 0-63 28.3-63 63s28.3 63 63 63 63-28.3 63-63c0-34.8-28.3-63-63-63z m0 124.4c-33.9 0-61.4-27.6-61.4-61.4 0-33.9 27.6-61.4 61.4-61.4s61.4 27.6 61.4 61.4c0 33.9-27.5 61.4-61.4 61.4z m0-119.7c-32.1 0-58.2 26.1-58.2 58.2S98.4 571 130.5 571s58.2-26.1 58.2-58.2c0-32-26.1-58.2-58.2-58.2zM896 561.1c-26.6 0-48.2-21.6-48.2-48.2s21.6-48.2 48.2-48.2 48.2 21.6 48.2 48.2-21.6 48.2-48.2 48.2z m0-92.9c-24.6 0-44.7 20-44.7 44.7 0 24.6 20 44.7 44.7 44.7s44.7-20 44.7-44.7c0-24.6-20-44.7-44.7-44.7z" p-id="13988" fill="#dbdbdb"></path><path d="M896 562.7c-27.5 0-49.8-22.3-49.8-49.8 0-27.5 22.3-49.8 49.8-49.8 27.5 0 49.8 22.3 49.8 49.8 0 27.4-22.3 49.8-49.8 49.8z m0-96.4c-25.7 0-46.6 20.9-46.6 46.6 0 25.7 20.9 46.6 46.6 46.6 25.7 0 46.6-20.9 46.6-46.6 0-25.7-20.9-46.6-46.6-46.6z m0 92.8c-25.5 0-46.2-20.7-46.2-46.2 0-25.5 20.7-46.2 46.2-46.2 25.5 0 46.2 20.7 46.2 46.2 0.1 25.5-20.7 46.2-46.2 46.2z m0-89.3c-23.7 0-43.1 19.3-43.1 43.1 0 23.7 19.3 43.1 43.1 43.1s43.1-19.3 43.1-43.1-19.3-43.1-43.1-43.1z" p-id="13989" fill="#dbdbdb"></path><path d="M896 577.5c-35.6 0-64.6-29-64.6-64.6s29-64.6 64.6-64.6 64.6 29 64.6 64.6-28.9 64.6-64.6 64.6z m0-124.5c-33 0-59.8 26.8-59.8 59.8s26.8 59.8 59.8 59.8 59.8-26.8 59.8-59.8c0.1-32.9-26.8-59.8-59.8-59.8z" p-id="13990" fill="#dbdbdb"></path><path d="M896 579.1c-36.5 0-66.2-29.7-66.2-66.2s29.7-66.2 66.2-66.2 66.2 29.7 66.2 66.2-29.7 66.2-66.2 66.2z m0-129.2c-34.7 0-63 28.3-63 63s28.3 63 63 63 63-28.3 63-63c0-34.8-28.2-63-63-63z m0 124.4c-33.9 0-61.4-27.6-61.4-61.4 0-33.9 27.6-61.4 61.4-61.4 33.9 0 61.4 27.6 61.4 61.4 0.1 33.9-27.5 61.4-61.4 61.4z m0-119.7c-32.1 0-58.2 26.1-58.2 58.2S863.9 571 896 571s58.2-26.1 58.2-58.2c0.1-32-26.1-58.2-58.2-58.2z" p-id="13991" fill="#dbdbdb"></path><path d="M944.4 709.4H79.7C55 709.4 35 689.3 35 664.7V359.4c0-24.7 20.1-44.7 44.7-44.7h864.7c24.7 0 44.7 20.1 44.7 44.7v305.3c0 24.6-20.1 44.7-44.7 44.7zM79.7 325.3c-18.8 0-34.1 15.3-34.1 34.1v305.3c0 18.8 15.3 34.1 34.1 34.1h864.7c18.8 0 34.1-15.3 34.1-34.1V359.4c0-18.8-15.3-34.1-34.1-34.1H79.7z" p-id="13992" fill="#dbdbdb"></path><path d="M355.9 486.1c-10.2 0-18.4-8.3-18.4-18.5s8.3-18.4 18.4-18.4c10 0 18.5 8.4 18.5 18.4 0 10-8.4 18.5-18.5 18.5z m0-29.1c-5.8 0-10.6 4.7-10.6 10.6 0 5.8 4.7 10.6 10.6 10.6 5.7 0 10.6-4.9 10.6-10.6 0-5.6-4.9-10.6-10.6-10.6zM434 486.1c-10.2 0-18.4-8.3-18.4-18.5s8.3-18.4 18.4-18.4c10 0 18.5 8.4 18.5 18.4 0 10-8.5 18.5-18.5 18.5z m0-29.1c-5.8 0-10.6 4.7-10.6 10.6 0 5.8 4.7 10.6 10.6 10.6 5.7 0 10.6-4.9 10.6-10.6 0-5.6-4.9-10.6-10.6-10.6zM512.1 486.1c-10.2 0-18.4-8.3-18.4-18.5s8.3-18.4 18.4-18.4c10 0 18.5 8.4 18.5 18.4 0 10-8.5 18.5-18.5 18.5z m0-29.1c-5.8 0-10.6 4.7-10.6 10.6 0 5.8 4.7 10.6 10.6 10.6 5.7 0 10.6-4.9 10.6-10.6 0-5.6-4.9-10.6-10.6-10.6zM590.2 486.1c-10.2 0-18.4-8.3-18.4-18.5s8.3-18.4 18.4-18.4c10 0 18.5 8.4 18.5 18.4 0 10-8.5 18.5-18.5 18.5z m0-29.1c-5.8 0-10.6 4.7-10.6 10.6 0 5.8 4.7 10.6 10.6 10.6 5.7 0 10.6-4.9 10.6-10.6 0-5.6-4.9-10.6-10.6-10.6zM668.3 486.1c-10.2 0-18.4-8.3-18.4-18.5s8.3-18.4 18.4-18.4c10 0 18.5 8.4 18.5 18.4 0 10-8.5 18.5-18.5 18.5z m0-29.1c-5.8 0-10.6 4.7-10.6 10.6 0 5.8 4.7 10.6 10.6 10.6 5.7 0 10.6-4.9 10.6-10.6 0-5.6-4.9-10.6-10.6-10.6z" p-id="13993" fill="#dbdbdb"></path><path d="M395 576c-10.2 0-18.4-8.3-18.4-18.5s8.3-18.4 18.4-18.4c10 0 18.5 8.4 18.5 18.4-0.1 10-8.5 18.5-18.5 18.5z m0-29.1c-5.8 0-10.6 4.7-10.6 10.6 0 5.8 4.7 10.6 10.6 10.6 5.7 0 10.6-4.9 10.6-10.6 0-5.6-5-10.6-10.6-10.6zM473.1 576c-10.2 0-18.4-8.3-18.4-18.5s8.3-18.4 18.4-18.4c10 0 18.5 8.4 18.5 18.4-0.1 10-8.5 18.5-18.5 18.5z m0-29.1c-5.8 0-10.6 4.7-10.6 10.6 0 5.8 4.7 10.6 10.6 10.6 5.7 0 10.6-4.9 10.6-10.6 0-5.6-5-10.6-10.6-10.6zM551.2 576c-10.2 0-18.4-8.3-18.4-18.5s8.3-18.4 18.4-18.4c10 0 18.5 8.4 18.5 18.4-0.1 10-8.5 18.5-18.5 18.5z m0-29.1c-5.8 0-10.6 4.7-10.6 10.6 0 5.8 4.7 10.6 10.6 10.6 5.7 0 10.6-4.9 10.6-10.6 0-5.6-5-10.6-10.6-10.6zM629.3 576c-10.2 0-18.4-8.3-18.4-18.5s8.3-18.4 18.4-18.4c10 0 18.5 8.4 18.5 18.4-0.1 10-8.5 18.5-18.5 18.5z m0-29.1c-5.8 0-10.6 4.7-10.6 10.6 0 5.8 4.7 10.6 10.6 10.6 5.7 0 10.6-4.9 10.6-10.6 0-5.6-5-10.6-10.6-10.6z" p-id="13994" fill="#dbdbdb"></path><path d="M351.7 653.7c-43.1 0-77.4-26.4-85.3-65.7l-26.5-126.7c-4.5-22.3 1.1-45.2 15.5-62.8 14.4-17.6 35.7-27.7 58.4-27.7h397.8c22.7 0 43.9 10 58.3 27.5 14.4 17.5 20.1 40.3 15.7 62.5 0 0.1 0 0.2-0.1 0.3L751 588.2c-7.7 38.6-42.7 65.5-85.3 65.5h-314zM313.8 396c-15.1 0-29.3 6.7-38.9 18.4-9.6 11.7-13.3 26.9-10.3 41.8l26.5 126.7c5.5 27.2 29.9 45.5 60.6 45.5h314.1c30.9 0 55.3-18.4 60.7-45.8 0-0.1 0-0.2 0.1-0.3l34.4-127c2.8-14.4-1.1-29.4-10.6-41-9.6-11.7-23.7-18.3-38.8-18.3H313.8z" p-id="13995" fill="#dbdbdb"></path></svg>