<?xml version="1.0" standalone="no"?><!DOCTYPE svg PUBLIC "-//W3C//DTD SVG 1.1//EN" "http://www.w3.org/Graphics/SVG/1.1/DTD/svg11.dtd"><svg t="1606133368089" class="icon" viewBox="0 0 1024 1024" version="1.1" xmlns="http://www.w3.org/2000/svg" p-id="14952" xmlns:xlink="http://www.w3.org/1999/xlink" width="200" height="200"><defs><style type="text/css"></style></defs><path d="M30.038 530.049h103.794v322.403h46.923V530.049h104.235v-41.832H30.038zM578.443 338.822c7.739 8.278 20.279 8.278 28.019 0 7.689-8.426 7.689-22.092 0-30.419L480.527 171.742c-6.536-7.03-14.747-11.929-23.906-11.753-7.582 0-17.445 4.723-23.901 11.753L306.788 308.403c-7.74 8.327-7.74 21.993 0 30.419 7.74 8.278 20.279 8.278 28.019 0l121.818-132.294 121.818 132.294zM961.681 516.626c-21.601-19.004-51.92-28.409-90.86-28.409H768.102v364.235h46.632V716.279h46.925c37.816 1.273 69.262-9.209 94.536-31.397 25.179-22.189 37.767-51.138 37.767-86.846 0-35.267-10.729-62.452-32.281-81.41z m-38.891 138.867c-14.794 12.883-36.395 19.347-64.852 19.347h-43.204V529.558h47.611c55.056 0 82.634 23.512 82.634 70.34 0 24.098-7.396 42.664-22.189 55.595zM512.024 482.045c-53.979 0-96.74 17.438-128.384 52.214-31.543 34.778-47.366 81.606-47.366 140.386 0 54.565 15.528 98.895 46.485 132.889s72.053 50.99 123.387 50.99c52.558 0 94.584-17.29 125.981-51.92 31.397-34.681 47.123-81.558 47.123-140.68 0-54.565-15.383-98.748-45.947-132.789-30.662-34.043-71.12-51.09-121.279-51.09z m84.985 296.443c-21.992 25.471-52.266 38.205-90.862 38.205-35.954 0-65.048-13.323-87.384-39.87-22.239-26.549-33.505-61.865-33.505-105.901 0-43.791 11.464-79.155 34.289-106.097 22.922-26.938 52.752-40.459 89.638-40.459 37.519 0 66.957 12.785 88.56 38.402 21.552 25.568 32.327 61.816 32.327 108.839-0.001 45.799-11.021 81.362-33.063 106.881z" fill="#1afa29" p-id="14953"></path></svg>