<?xml version="1.0" standalone="no"?><!DOCTYPE svg PUBLIC "-//W3C//DTD SVG 1.1//EN" "http://www.w3.org/Graphics/SVG/1.1/DTD/svg11.dtd"><svg t="1615299396969" class="icon" viewBox="0 0 1024 1024" version="1.1" xmlns="http://www.w3.org/2000/svg" p-id="2948" xmlns:xlink="http://www.w3.org/1999/xlink" width="200" height="200"><defs><style type="text/css"></style></defs><path d="M822.4 761.6v-32h-169.6v-124.8H736c96-3.2 169.6-80 169.6-176 0-51.2-22.4-96-57.6-128v-9.6c0-140.8-121.6-252.8-268.8-252.8-67.2 0-131.2 25.6-179.2 64-22.4-12.8-44.8-19.2-70.4-19.2-86.4 0-153.6 70.4-153.6 153.6 0 9.6 0 19.2 3.2 28.8C131.2 304 96 358.4 96 422.4c0 96 73.6 172.8 166.4 182.4h99.2V736H192v92.8H134.4v150.4h150.4v-150.4H224V768h169.6v-163.2h96l3.2 204.8h-57.6V960h150.4v-150.4h-60.8l-3.2-204.8h99.2v156.8h169.6v60.8h-60.8v150.4h150.4v-150.4h-57.6v-60.8z" fill="#5B8FD9" p-id="2949"></path><path d="M755.2 848h99.2v99.2h-99.2z" fill="#FE6D68" p-id="2950"></path><path d="M460.8 841.6h89.6v89.6h-89.6z" fill="#F9D65D" p-id="2951"></path><path d="M163.2 857.6h89.6v89.6H163.2z" fill="#68D279" p-id="2952"></path><path d="M726.4 297.6H288c-6.4 0-12.8-9.6-12.8-16v-3.2c0-9.6 6.4-16 16-16h438.4c9.6 0 16 6.4 16 16v3.2c-3.2 6.4-12.8 16-19.2 16zM720 400H294.4c-9.6 0-16-6.4-16-16s6.4-16 16-16h422.4c9.6 0 16 6.4 16 16s-6.4 16-12.8 16zM720 505.6H294.4c-9.6 0-16-6.4-16-16s6.4-16 16-16h422.4c9.6 0 16 6.4 16 16s-6.4 16-12.8 16z" fill="#CBDEF4" p-id="2953"></path><path d="M579.2 384c-6.4 0-12.8-6.4-12.8-9.6V291.2c0-6.4 6.4-9.6 9.6-9.6h3.2c6.4 0 9.6 6.4 9.6 9.6v83.2c3.2 6.4-3.2 9.6-9.6 9.6zM400 483.2c-6.4 0-12.8-6.4-12.8-9.6v-80c0-6.4 6.4-9.6 9.6-9.6 6.4 0 9.6 6.4 9.6 9.6v80c3.2 3.2-3.2 9.6-6.4 9.6z" fill="#CBDEF4" p-id="2954"></path></svg>